<svg width="35" height="35" viewBox="0 0 35 35" fill="none" xmlns="http://www.w3.org/2000/svg">
<path d="M16.2575 23.9925C16.4239 24.1518 16.6202 24.2767 16.835 24.36C17.2611 24.535 17.7389 24.535 18.165 24.36C18.3798 24.2767 18.5761 24.1518 18.7425 23.9925L23.9925 18.7425C24.322 18.413 24.5072 17.966 24.5072 17.5C24.5072 17.034 24.322 16.587 23.9925 16.2575C23.663 15.928 23.216 15.7428 22.75 15.7428C22.284 15.7428 21.837 15.928 21.5075 16.2575L19.25 18.5325V12.25C19.25 11.7859 19.0656 11.3408 18.7374 11.0126C18.4092 10.6844 17.9641 10.5 17.5 10.5C17.0359 10.5 16.5907 10.6844 16.2626 11.0126C15.9344 11.3408 15.75 11.7859 15.75 12.25V18.5325L13.4925 16.2575C13.3298 16.0935 13.1363 15.9633 12.923 15.8744C12.7098 15.7856 12.481 15.7399 12.25 15.7399C12.019 15.7399 11.7902 15.7856 11.577 15.8744C11.3637 15.9633 11.1702 16.0935 11.0075 16.2575C10.8435 16.4202 10.7133 16.6137 10.6244 16.827C10.5356 17.0402 10.4899 17.269 10.4899 17.5C10.4899 17.731 10.5356 17.9598 10.6244 18.173C10.7133 18.3863 10.8435 18.5798 11.0075 18.7425L16.2575 23.9925ZM17.5 35C20.9612 35 24.3446 33.9736 27.2225 32.0507C30.1003 30.1278 32.3434 27.3947 33.6679 24.197C34.9924 20.9993 35.339 17.4806 34.6637 14.0859C33.9885 10.6913 32.3218 7.57306 29.8744 5.12564C27.4269 2.67822 24.3087 1.01151 20.9141 0.336265C17.5194 -0.338976 14.0007 0.00758247 10.803 1.33212C7.60533 2.65665 4.87221 4.89967 2.94928 7.77753C1.02636 10.6554 0 14.0388 0 17.5C0 22.1413 1.84374 26.5925 5.12563 29.8744C6.75066 31.4994 8.67984 32.7884 10.803 33.6679C12.9262 34.5474 15.2019 35 17.5 35ZM17.5 3.50001C20.2689 3.50001 22.9757 4.32109 25.278 5.85943C27.5803 7.39777 29.3747 9.58427 30.4343 12.1424C31.4939 14.7006 31.7712 17.5155 31.231 20.2313C30.6908 22.947 29.3574 25.4416 27.3995 27.3995C25.4416 29.3574 22.947 30.6908 20.2313 31.231C17.5155 31.7712 14.7006 31.4939 12.1424 30.4343C9.58426 29.3747 7.39776 27.5803 5.85942 25.278C4.32108 22.9757 3.5 20.2689 3.5 17.5C3.5 13.787 4.975 10.226 7.6005 7.60051C10.226 4.975 13.787 3.50001 17.5 3.50001Z" fill="black"/>
</svg>
