<svg width="229" height="26" viewBox="0 0 229 26" fill="none" xmlns="http://www.w3.org/2000/svg">
<path d="M12.66 20.35V4.48H2.61V2.65H24.54V4.48H14.46V20.35H12.66ZM16.11 22.03V6.16H26.19V0.969999H0.96V6.16H11.01V22.03H16.11ZM0.21 6.91V0.22H26.94L29.85 3.31V9.82H19.77V25.69H13.35L10.26 22.78V9.82H3.3L0.21 6.91ZM52.6662 10.6V12.4H37.3962V18.52H55.7862V20.35H35.5362V2.65H55.7562V4.48H37.3962V10.6H52.6662ZM57.4362 6.16V0.969999H33.8562V22.03H57.4662V16.84H39.0462V14.05H54.3162V8.95H39.0462V6.16H57.4362ZM33.1062 22.78V0.22H58.1862L61.0962 3.31V9.82H56.5062L57.9762 11.29V16.09L61.1262 19.18V25.69H36.1962L33.1062 22.78ZM75.5374 4.48C74.3574 4.48 73.2574 4.61 72.2374 4.87C71.2374 5.11 70.3674 5.51 69.6274 6.07C68.8874 6.61 68.2974 7.33 67.8574 8.23C67.4374 9.13 67.2274 10.22 67.2274 11.5C67.2274 12.8 67.4374 13.9 67.8574 14.8C68.2974 15.68 68.8874 16.4 69.6274 16.96C70.3674 17.52 71.2374 17.92 72.2374 18.16C73.2574 18.4 74.3574 18.52 75.5374 18.52H78.8074C80.2074 18.52 81.5674 18.31 82.8874 17.89C84.2274 17.45 85.3774 16.69 86.3374 15.61L88.2574 16.81C87.6974 17.59 87.0574 18.22 86.3374 18.7C85.6174 19.16 84.8474 19.51 84.0274 19.75C83.2074 19.99 82.3474 20.15 81.4474 20.23C80.5674 20.31 79.6874 20.35 78.8074 20.35H75.5374C74.0774 20.35 72.7174 20.2 71.4574 19.9C70.2174 19.58 69.1374 19.07 68.2174 18.37C67.3174 17.65 66.6074 16.73 66.0874 15.61C65.5874 14.49 65.3374 13.12 65.3374 11.5C65.3374 9.88 65.5874 8.51 66.0874 7.39C66.6074 6.27 67.3174 5.36 68.2174 4.66C69.1374 3.94 70.2174 3.43 71.4574 3.13C72.7174 2.81 74.0774 2.65 75.5374 2.65H78.8074C79.6874 2.65 80.5674 2.69 81.4474 2.77C82.3474 2.85 83.2074 3.01 84.0274 3.25C84.8474 3.49 85.6174 3.85 86.3374 4.33C87.0574 4.79 87.6974 5.41 88.2574 6.19L86.3374 7.39C85.3774 6.31 84.2274 5.56 82.8874 5.14C81.5674 4.7 80.2074 4.48 78.8074 4.48H75.5374ZM78.8074 6.16C80.2474 6.16 81.5674 6.43 82.7674 6.97C83.9674 7.49 84.9874 8.35 85.8274 9.55L90.5974 6.73C89.9174 5.57 89.1574 4.62 88.3174 3.88C87.4774 3.12 86.5574 2.53 85.5574 2.11C84.5774 1.67 83.5174 1.37 82.3774 1.21C81.2574 1.05 80.0674 0.969999 78.8074 0.969999H75.5374C73.7974 0.969999 72.1974 1.17 70.7374 1.57C69.2974 1.95 68.0474 2.56 66.9874 3.4C65.9474 4.24 65.1274 5.33 64.5274 6.67C63.9474 7.99 63.6574 9.6 63.6574 11.5C63.6574 13.4 63.9474 15.02 64.5274 16.36C65.1274 17.68 65.9474 18.76 66.9874 19.6C68.0474 20.44 69.2974 21.06 70.7374 21.46C72.1974 21.84 73.7974 22.03 75.5374 22.03H78.8074C80.0674 22.03 81.2574 21.95 82.3774 21.79C83.5174 21.63 84.5774 21.34 85.5574 20.92C86.5574 20.48 87.4774 19.89 88.3174 19.15C89.1574 18.41 89.9174 17.45 90.5974 16.27L85.8274 13.45C84.9874 14.65 83.9674 15.52 82.7674 16.06C81.5674 16.58 80.2474 16.84 78.8074 16.84H75.5374C74.6374 16.84 73.7874 16.75 72.9874 16.57C72.1874 16.39 71.4874 16.1 70.8874 15.7C70.2874 15.28 69.8074 14.73 69.4474 14.05C69.0874 13.37 68.9074 12.52 68.9074 11.5C68.9074 10.5 69.0874 9.66 69.4474 8.98C69.8074 8.3 70.2874 7.75 70.8874 7.33C71.5074 6.91 72.2174 6.61 73.0174 6.43C73.8174 6.25 74.6574 6.16 75.5374 6.16H78.8074ZM68.1574 22.42C67.0174 21.42 66.1074 20.49 65.4274 19.63C64.7474 18.75 64.2174 17.89 63.8374 17.05C63.4574 16.19 63.2074 15.31 63.0874 14.41C62.9674 13.51 62.9074 12.54 62.9074 11.5C62.9074 9.46 63.2174 7.73 63.8374 6.31C64.4574 4.87 65.3274 3.7 66.4474 2.8C67.5674 1.9 68.8974 1.25 70.4374 0.849999C71.9974 0.429999 73.6974 0.22 75.5374 0.22H78.8074C79.9474 0.22 81.0374 0.27 82.0774 0.37C83.1374 0.45 84.1874 0.69 85.2274 1.09C86.2674 1.49 87.3274 2.09 88.4074 2.89C89.4874 3.69 90.6474 4.8 91.8874 6.22C92.0874 6.44 92.3074 6.7 92.5474 7C92.7874 7.3 93.0174 7.62 93.2374 7.96C93.4574 8.3 93.6774 8.65 93.8974 9.01C94.1174 9.35 94.3174 9.67 94.4974 9.97L88.6474 13.42L86.3674 11.14C85.6674 10.68 84.9374 10.35 84.1774 10.15C83.4174 9.93 82.6274 9.82 81.8074 9.82H78.5374C77.7374 9.82 76.9774 9.9 76.2574 10.06C75.5374 10.22 74.8974 10.48 74.3374 10.84C73.7974 11.2 73.3674 11.68 73.0474 12.28C72.7274 12.88 72.5674 13.62 72.5674 14.5C72.5674 14.98 72.6074 15.38 72.6874 15.7C73.1074 15.84 73.5574 15.94 74.0374 16C74.5174 16.06 75.0174 16.09 75.5374 16.09H78.8074C80.1274 16.09 81.3674 15.81 82.5274 15.25C83.7074 14.69 84.7474 13.76 85.6474 12.46L91.6474 16L94.4974 19.03C93.6974 20.39 92.8274 21.5 91.8874 22.36C90.9674 23.22 89.9774 23.89 88.9174 24.37C87.8574 24.87 86.7374 25.21 85.5574 25.39C84.3774 25.59 83.1274 25.69 81.8074 25.69H78.5374C77.5174 25.69 76.5074 25.62 75.5074 25.48C74.5274 25.36 73.5774 25.16 72.6574 24.88C71.7574 24.62 70.9174 24.28 70.1374 23.86C69.3774 23.46 68.7174 22.98 68.1574 22.42ZM119.146 12.4H102.406V20.35H100.576V2.65H102.406V10.6H119.146V2.65H121.006V20.35H119.146V12.4ZM122.686 0.969999H117.466V8.95H104.086V0.969999H98.8959V22.03H104.086V14.05H117.466V22.03H122.686V0.969999ZM107.746 8.2H116.716V0.22H123.436L126.346 3.31V25.69H119.806L116.716 22.78V17.71H107.746V25.69H101.236L98.1459 22.78V0.22H104.836L107.746 3.31V8.2ZM151.197 20.35V12.4H134.457V20.35H132.627V2.65H134.457V10.6H151.197V2.65H153.057V20.35H151.197ZM154.737 22.03V0.969999H149.517V8.95H136.137V0.969999H130.947V22.03H136.137V14.05H149.517V22.03H154.737ZM139.797 8.2H148.767V0.22H155.487L158.397 3.31V25.69H151.857L148.767 22.78V17.71H139.797V25.69H133.287L130.197 22.78V0.22H136.887L139.797 3.31V8.2ZM166.839 2.65V11.5C166.839 12.8 167.049 13.9 167.469 14.8C167.889 15.68 168.469 16.4 169.209 16.96C169.969 17.5 170.849 17.9 171.849 18.16C172.849 18.4 173.939 18.52 175.119 18.52H178.419C179.579 18.52 180.659 18.4 181.659 18.16C182.679 17.9 183.559 17.5 184.299 16.96C185.059 16.4 185.649 15.68 186.069 14.8C186.509 13.9 186.729 12.8 186.729 11.5V2.65H188.619V11.5C188.619 13.12 188.359 14.49 187.839 15.61C187.319 16.73 186.599 17.65 185.679 18.37C184.779 19.07 183.709 19.58 182.469 19.9C181.229 20.2 179.879 20.35 178.419 20.35H175.119C173.659 20.35 172.299 20.2 171.039 19.9C169.799 19.58 168.719 19.07 167.799 18.37C166.899 17.65 166.189 16.73 165.669 15.61C165.169 14.49 164.919 13.12 164.919 11.5V2.65H166.839ZM163.269 11.5C163.269 13.4 163.559 15.02 164.139 16.36C164.719 17.68 165.529 18.76 166.569 19.6C167.629 20.44 168.879 21.06 170.319 21.46C171.779 21.84 173.379 22.03 175.119 22.03H178.419C180.159 22.03 181.749 21.84 183.189 21.46C184.649 21.06 185.899 20.44 186.939 19.6C187.999 18.76 188.819 17.68 189.399 16.36C189.979 15.02 190.269 13.4 190.269 11.5V0.969999H185.049V11.5C185.049 12.52 184.869 13.37 184.509 14.05C184.149 14.73 183.669 15.28 183.069 15.7C182.469 16.1 181.769 16.39 180.969 16.57C180.169 16.75 179.319 16.84 178.419 16.84H175.119C174.219 16.84 173.369 16.75 172.569 16.57C171.769 16.39 171.069 16.09 170.469 15.67C169.869 15.25 169.389 14.7 169.029 14.02C168.689 13.34 168.519 12.5 168.519 11.5V0.969999H163.269V11.5ZM162.519 0.22H169.269L172.179 3.31V14.5C172.179 14.72 172.179 14.93 172.179 15.13C172.199 15.33 172.229 15.52 172.269 15.7C173.109 15.96 174.059 16.09 175.119 16.09H178.419C179.199 16.09 179.939 16.02 180.639 15.88C181.359 15.72 181.989 15.46 182.529 15.1C183.069 14.74 183.499 14.27 183.819 13.69C184.139 13.11 184.299 12.38 184.299 11.5V0.22H191.019L193.929 3.31V14.5C193.929 16.52 193.619 18.24 192.999 19.66C192.379 21.08 191.519 22.23 190.419 23.11C189.319 24.01 187.999 24.66 186.459 25.06C184.919 25.48 183.239 25.69 181.419 25.69H178.119C177.099 25.69 176.109 25.64 175.149 25.54C174.209 25.44 173.309 25.27 172.449 25.03C171.609 24.81 170.829 24.51 170.109 24.13C169.389 23.75 168.749 23.28 168.189 22.72C167.049 21.74 166.109 20.81 165.369 19.93C164.649 19.03 164.079 18.13 163.659 17.23C163.239 16.33 162.939 15.42 162.759 14.5C162.599 13.56 162.519 12.56 162.519 11.5V0.22ZM215.824 10.6C216.304 10.6 216.774 10.55 217.234 10.45C217.694 10.33 218.104 10.15 218.464 9.91C218.844 9.67 219.144 9.36 219.364 8.98C219.584 8.58 219.694 8.11 219.694 7.57C219.694 7.01 219.584 6.54 219.364 6.16C219.164 5.76 218.884 5.44 218.524 5.2C218.164 4.94 217.754 4.76 217.294 4.66C216.834 4.54 216.354 4.48 215.854 4.48H203.014V10.6H215.824ZM215.854 6.16C216.074 6.16 216.314 6.18 216.574 6.22C216.834 6.26 217.074 6.34 217.294 6.46C217.514 6.56 217.694 6.7 217.834 6.88C217.974 7.06 218.044 7.29 218.044 7.57C218.044 7.85 217.964 8.08 217.804 8.26C217.664 8.42 217.474 8.56 217.234 8.68C217.014 8.78 216.774 8.85 216.514 8.89C216.254 8.93 216.024 8.95 215.824 8.95H204.694V6.16H215.854ZM217.444 18.52C217.924 18.52 218.404 18.47 218.884 18.37C219.364 18.25 219.784 18.07 220.144 17.83C220.524 17.57 220.824 17.25 221.044 16.87C221.284 16.47 221.404 15.99 221.404 15.43C221.404 14.93 221.304 14.49 221.104 14.11C220.904 13.73 220.634 13.42 220.294 13.18C219.954 12.92 219.564 12.73 219.124 12.61C218.704 12.47 218.264 12.4 217.804 12.4H203.014V18.52H217.444ZM217.804 14.05C218.004 14.05 218.214 14.08 218.434 14.14C218.674 14.18 218.884 14.26 219.064 14.38C219.264 14.48 219.424 14.62 219.544 14.8C219.664 14.98 219.724 15.19 219.724 15.43C219.724 15.73 219.644 15.97 219.484 16.15C219.344 16.33 219.154 16.47 218.914 16.57C218.694 16.67 218.444 16.74 218.164 16.78C217.904 16.82 217.664 16.84 217.444 16.84H204.694V14.05H217.804ZM215.854 2.65C216.674 2.65 217.434 2.74 218.134 2.92C218.834 3.1 219.434 3.39 219.934 3.79C220.454 4.19 220.854 4.7 221.134 5.32C221.434 5.94 221.594 6.69 221.614 7.57C221.614 8.05 221.504 8.51 221.284 8.95C221.084 9.37 220.834 9.74 220.534 10.06C220.234 10.38 219.914 10.64 219.574 10.84C219.234 11.02 218.944 11.12 218.704 11.14C219.244 11.18 219.784 11.32 220.324 11.56C220.864 11.78 221.344 12.08 221.764 12.46C222.204 12.84 222.564 13.28 222.844 13.78C223.124 14.28 223.264 14.83 223.264 15.43C223.264 16.33 223.114 17.1 222.814 17.74C222.514 18.36 222.094 18.87 221.554 19.27C221.034 19.65 220.414 19.93 219.694 20.11C218.994 20.27 218.244 20.35 217.444 20.35H201.214V2.65H215.854ZM217.444 22.03C218.524 22.03 219.524 21.91 220.444 21.67C221.364 21.41 222.154 21.02 222.814 20.5C223.474 19.96 223.994 19.28 224.374 18.46C224.754 17.62 224.944 16.61 224.944 15.43C224.944 14.43 224.664 13.54 224.104 12.76C223.564 11.98 222.744 11.36 221.644 10.9C221.884 10.7 222.104 10.47 222.304 10.21C222.504 9.93 222.674 9.64 222.814 9.34C222.954 9.04 223.064 8.74 223.144 8.44C223.224 8.12 223.264 7.83 223.264 7.57C223.264 6.43 223.084 5.45 222.724 4.63C222.364 3.79 221.854 3.1 221.194 2.56C220.554 2.02 219.774 1.62 218.854 1.36C217.954 1.1 216.954 0.969999 215.854 0.969999H199.534V22.03H217.444ZM198.784 0.22H215.854C217.654 0.22 219.284 0.519999 220.744 1.12C222.204 1.72 223.564 2.77 224.824 4.27C225.244 4.77 225.624 5.39 225.964 6.13C226.304 6.85 226.544 7.61 226.684 8.41C226.824 9.19 226.824 9.96 226.684 10.72C226.564 11.48 226.244 12.13 225.724 12.67C226.244 12.87 226.684 13.21 227.044 13.69C227.404 14.15 227.694 14.66 227.914 15.22C228.154 15.78 228.324 16.35 228.424 16.93C228.544 17.51 228.604 18.01 228.604 18.43C228.604 19.73 228.394 20.84 227.974 21.76C227.574 22.66 227.014 23.4 226.294 23.98C225.574 24.58 224.714 25.01 223.714 25.27C222.714 25.55 221.624 25.69 220.444 25.69H201.874L198.784 22.78V0.22Z" fill="black"/>
</svg>
